<?xml version="1.0" encoding="UTF-8"?>
<svg width="24px" height="24px" viewBox="0 0 24 24" version="1.1" xmlns="http://www.w3.org/2000/svg">
    <title>微信</title>
    <g id="微信" stroke="none" stroke-width="1" fill="none" fill-rule="evenodd">
        <g id="编组">
            <circle id="椭圆形" fill="#FFFFFF" cx="12" cy="12" r="12"></circle>
            <path d="M18.7612468,17.0302703 C19.7719856,16.291964 20.4177514,15.1997838 20.4177514,13.9863784 C20.4177514,11.7622342 18.2713009,9.95956757 15.6232288,9.95956757 C12.975445,9.95956757 10.8287063,11.7622342 10.8287063,13.9863784 C10.8287063,16.2105225 12.975445,18.0134775 15.6232288,18.0134775 C16.1702559,18.0134775 16.6985441,17.9346306 17.1883459,17.7927928 C17.2328865,17.7790991 17.2801658,17.7714595 17.3293189,17.7714595 C17.4212829,17.7714595 17.5048865,17.7997117 17.5838775,17.8456937 L18.6332468,18.4565766 C18.6626523,18.4732973 18.6910486,18.4865586 18.7257874,18.4865586 C18.8141477,18.4865586 18.8856432,18.4143423 18.8856432,18.3255495 C18.8856432,18.2854775 18.8697874,18.2458378 18.8598414,18.2076396 C18.8537874,18.1848649 18.7246342,17.6988108 18.6437694,17.3953874 C18.6345441,17.3612252 18.6269045,17.3283604 18.6269045,17.2927568 C18.6269045,17.1846486 18.6799495,17.0886486 18.7612468,17.0302703 M14.0251027,13.300973 C13.6945802,13.300973 13.4264721,13.030991 13.4264721,12.6978739 C13.4264721,12.3646126 13.6945802,12.0944865 14.0251027,12.0944865 C14.3557694,12.0944865 14.6237333,12.3646126 14.6237333,12.6978739 C14.6237333,13.030991 14.3557694,13.300973 14.0251027,13.300973 M17.2214991,13.300973 C16.8908324,13.300973 16.6231568,13.030991 16.6231568,12.6978739 C16.6231568,12.3646126 16.8908324,12.0944865 17.2214991,12.0944865 C17.5521658,12.0944865 17.8201297,12.3646126 17.8201297,12.6978739 C17.8201297,13.030991 17.5521658,13.300973 17.2214991,13.300973" id="Fill-17" fill="#00D267"></path>
            <path d="M10.2533694,5.51351351 C7.07585586,5.51351351 4.5,7.67711712 4.5,10.3458018 C4.5,11.8020901 5.27506306,13.1127928 6.48789189,13.9985586 C6.58533333,14.0686126 6.64904505,14.1834955 6.64904505,14.3136577 C6.64904505,14.3564685 6.63996396,14.3955315 6.62872072,14.4367568 C6.53185586,14.801009 6.37675676,15.3842162 6.36954955,15.4114595 C6.35744144,15.4572973 6.3387027,15.5048649 6.3387027,15.5527207 C6.3387027,15.6595315 6.42446847,15.7458739 6.53041441,15.7458739 C6.57221622,15.7458739 6.60609009,15.7304505 6.64111712,15.709982 L7.90093694,14.977009 C7.9954955,14.9220901 8.09567568,14.8882162 8.20623423,14.8882162 C8.26518919,14.8882162 8.32183784,14.897009 8.37531532,14.9134414 C8.96299099,15.0838198 9.59679279,15.1783784 10.2533694,15.1783784 C10.3594595,15.1783784 10.4646847,15.1754955 10.5693333,15.1708829 C10.4442162,14.7938018 10.3761802,14.396973 10.3761802,13.9864505 C10.3761802,11.5525766 12.7252973,9.57924324 15.6233153,9.57924324 C15.7282523,9.57924324 15.7550631,9.58255856 15.8584144,9.5876036 C15.4251171,7.27899099 13.1237117,5.51351351 10.2533694,5.51351351 M8.33581982,9.48511712 C7.95989189,9.48511712 7.65531532,9.17809009 7.65531532,8.79956757 C7.65531532,8.4209009 7.95989189,8.11401802 8.33581982,8.11401802 C8.71117117,8.11401802 9.01574775,8.4209009 9.01574775,8.79956757 C9.01574775,9.17809009 8.71117117,9.48511712 8.33581982,9.48511712 M12.1712072,9.48497297 C11.7955676,9.48497297 11.490991,9.17809009 11.490991,8.79956757 C11.490991,8.4209009 11.7955676,8.11401802 12.1712072,8.11401802 C12.5468468,8.11401802 12.8514234,8.4209009 12.8514234,8.79956757 C12.8514234,9.17809009 12.5468468,9.48497297 12.1712072,9.48497297" id="Fill-1" fill="#00D267"></path>
        </g>
    </g>
</svg>