<svg width="512" height="512" viewBox="0 0 512 512" fill="none" xmlns="http://www.w3.org/2000/svg">
  <!-- 极简线条风格 黑白配色 -->
  <rect x="32" y="32" width="448" height="448" rx="80" ry="80" fill="#FFFFFF"/>
  <rect x="32" y="32" width="448" height="448" rx="80" ry="80" fill="none" stroke="#1A1A1A" stroke-width="4"/>

  <!-- 中心方块 -->
  <rect x="216" y="216" width="80" height="80" rx="16" ry="16" fill="#1A1A1A"/>

  <!-- 十字连接线 -->
  <line x1="256" y1="128" x2="256" y2="216" stroke="#1A1A1A" stroke-width="8" stroke-linecap="round"/>
  <line x1="256" y1="296" x2="256" y2="384" stroke="#1A1A1A" stroke-width="8" stroke-linecap="round"/>
  <line x1="128" y1="256" x2="216" y2="256" stroke="#1A1A1A" stroke-width="8" stroke-linecap="round"/>
  <line x1="296" y1="256" x2="384" y2="256" stroke="#1A1A1A" stroke-width="8" stroke-linecap="round"/>

  <!-- 对角线 -->
  <line x1="176" y1="176" x2="216" y2="216" stroke="#666666" stroke-width="6" stroke-linecap="round"/>
  <line x1="336" y1="176" x2="296" y2="216" stroke="#666666" stroke-width="6" stroke-linecap="round"/>
  <line x1="176" y1="336" x2="216" y2="296" stroke="#666666" stroke-width="6" stroke-linecap="round"/>
  <line x1="336" y1="336" x2="296" y2="296" stroke="#666666" stroke-width="6" stroke-linecap="round"/>

  <!-- 节点 -->
  <circle cx="256" cy="128" r="20" fill="#1A1A1A"/>
  <circle cx="256" cy="384" r="20" fill="#1A1A1A"/>
  <circle cx="128" cy="256" r="20" fill="#1A1A1A"/>
  <circle cx="384" cy="256" r="20" fill="#1A1A1A"/>
  <circle cx="176" cy="176" r="12" fill="#666666"/>
  <circle cx="336" cy="176" r="12" fill="#666666"/>
  <circle cx="176" cy="336" r="12" fill="#666666"/>
  <circle cx="336" cy="336" r="12" fill="#666666"/>

  <!-- 中心 M -->
  <text x="256" y="270" font-family="Arial, sans-serif" font-size="48" font-weight="bold" fill="#FFFFFF" text-anchor="middle">M</text>
</svg>