<?xml version="1.0" encoding="UTF-8"?>
<svg width="24px" height="24px" viewBox="0 0 24 24" version="1.1" xmlns="http://www.w3.org/2000/svg" xmlns:xlink="http://www.w3.org/1999/xlink">
    <title>企业微信</title>
    <defs>
        <path d="M0.0678773799,0.0679091543 C-0.0168930451,0.152370198 -0.0221525241,0.28633222 0.0514801809,0.377290268 L0.0514801809,0.377290268 C0.0564302787,0.38347789 0.0618444482,0.389510822 0.0678773799,0.395543753 L0.0678773799,0.395543753 C0.0779322661,0.405598639 0.0889152956,0.414261311 0.100207706,0.422305219 L0.100207706,0.422305219 C0.122792527,0.443343135 0.145222658,0.464999813 0.167188717,0.486965872 L0.167188717,0.486965872 C0.600786347,0.920718193 0.873351108,1.45424592 0.98519238,2.01360698 L0.98519238,2.01360698 C0.987048667,2.04500916 0.990451859,2.07641134 0.995711338,2.10765883 L0.995711338,2.10765883 C1.00112551,2.14200014 1.00839596,2.17618675 1.01752271,2.20990929 L1.01752271,2.20990929 C1.06037199,2.3670749 1.14344082,2.51573252 1.26688388,2.63917559 L1.26688388,2.63917559 C1.64525699,3.01754869 2.25875973,3.01754869 2.63697814,2.63917559 L2.63697814,2.63917559 C3.01535125,2.26080248 3.01535125,1.64745443 2.63697814,1.26908133 L2.63697814,1.26908133 C2.50363488,1.13558338 2.34090042,1.04957543 2.16981266,1.01012933 L2.16981266,1.01012933 C2.15078572,1.005798 2.1314494,1.00193074 2.11211309,0.998836924 L2.11211309,0.998836924 C2.09277677,0.995588422 2.07328576,0.992803992 2.05348536,0.990638324 L2.05348536,0.990638324 C1.48020216,0.88390184 0.93213352,0.608862031 0.488790384,0.165364205 L0.488790384,0.165364205 C0.456769439,0.13349795 0.425676637,0.100858243 0.395666669,0.0677544638 L0.395666669,0.0677544638 L0.395511979,0.0679091543 C0.350187646,0.0227395118 0.290941162,0 0.231694679,0 L0.231694679,0 C0.172293506,0 0.113047022,0.0227395118 0.0678773799,0.0679091543 L0.0678773799,0.0679091543 Z" id="path-1"></path>
        <path d="M1.26888796,0.283702481 C1.1355447,0.417355122 1.04953675,0.579934897 1.01009066,0.751022652 L1.01009066,0.751022652 C1.00575933,0.770049591 1.00189206,0.78938591 0.99848887,0.80872223 L0.99848887,0.80872223 C0.995395059,0.82821324 0.992610629,0.84770425 0.990599652,0.867349951 L0.990599652,0.867349951 C0.883863168,1.44047846 0.608823358,1.9887018 0.165325532,2.43219962 L0.165325532,2.43219962 C0.133304587,2.46406588 0.10066488,2.49515868 0.0677157911,2.52516865 L0.0677157911,2.52516865 L0.0678704817,2.52532334 C-0.0226234939,2.61581731 -0.0226234939,2.76246396 0.0678704817,2.85295794 L0.0678704817,2.85295794 C0.152331526,2.93757367 0.286138857,2.94298784 0.377251595,2.86935513 L0.377251595,2.86935513 C0.383284527,2.86440504 0.389472149,2.85899087 0.39535039,2.85295794 L0.39535039,2.85295794 C0.405405276,2.84290305 0.414222638,2.83207471 0.422266547,2.8207823 L0.422266547,2.8207823 C0.443304463,2.79804279 0.464651759,2.77576735 0.4869272,2.7536466 L0.4869272,2.7536466 C0.92052483,2.32004897 1.45405256,2.04748421 2.01341361,1.93579763 L2.01341361,1.93579763 C2.04497049,1.93394134 2.07637267,1.93053815 2.10762016,1.92527867 L2.10762016,1.92527867 C2.14196146,1.9198645 2.17599339,1.91259404 2.20971593,1.90315792 L2.20971593,1.90315792 C2.36719091,1.86030863 2.51569385,1.77754919 2.63913691,1.65410612 L2.63913691,1.65410612 C3.01751001,1.27573302 3.01751001,0.662384963 2.63913691,0.283702481 L2.63913691,0.283702481 C2.44995036,0.0945159301 2.2019814,0 1.95401244,0 L1.95401244,0 C1.70604348,0 1.45807451,0.0945159301 1.26888796,0.283702481 L1.26888796,0.283702481 Z" id="path-3"></path>
        <path d="M0.28354779,0.283857171 C-0.0945159301,0.662230273 -0.0945159301,1.27573302 0.28354779,1.65410612 L0.28354779,1.65410612 C0.41689105,1.78744938 0.579470825,1.87361202 0.750558581,1.91290342 L0.750558581,1.91290342 C0.7698949,1.91723476 0.78923122,1.92110202 0.808567539,1.92435052 L0.808567539,1.92435052 C0.828058549,1.92759903 0.84754956,1.93038346 0.86704057,1.93239443 L0.86704057,1.93239443 C1.44047846,2.03928561 1.98839241,2.31417073 2.43189024,2.75766855 L2.43189024,2.75766855 C2.46391119,2.78953481 2.49500399,2.8224839 2.52516865,2.85527829 L2.52516865,2.85527829 C2.61581731,2.94577227 2.76230927,2.94577227 2.85295794,2.85527829 L2.85295794,2.85527829 C2.93757367,2.77066256 2.94283315,2.63685523 2.86920044,2.54589718 L2.86920044,2.54589718 C2.86394096,2.53955487 2.85868149,2.53336725 2.85295794,2.52764369 L2.85295794,2.52764369 C2.84290305,2.51743412 2.83176533,2.50877145 2.82062761,2.50103692 L2.82062761,2.50103692 C2.7978881,2.47968962 2.77561266,2.45803294 2.75349191,2.43606689 L2.75349191,2.43606689 C2.31973959,2.00246926 2.04732952,1.46894153 1.93533355,0.909425782 L1.93533355,0.909425782 C1.93378665,0.878023599 1.93022877,0.846621416 1.92527867,0.815528614 L1.92527867,0.815528614 C1.9198645,0.781187311 1.91228466,0.747000698 1.90331261,0.713123466 L1.90331261,0.713123466 C1.86015394,0.55595786 1.7772398,0.407454926 1.65395143,0.283857171 L1.65395143,0.283857171 C1.46476488,0.0946706206 1.21664123,0 0.968672265,0 L0.968672265,0 C0.720703303,0 0.472734341,0.0946706206 0.28354779,0.283857171 L0.28354779,0.283857171 Z" id="path-5"></path>
        <path d="M2.54581984,0.0513572648 C2.53963221,0.0566167437 2.53344459,0.0618762226 2.52772104,0.0679091543 L2.52772104,0.0679091543 C2.51751146,0.0779640405 2.50884879,0.0886376889 2.50080488,0.10008479 L2.50080488,0.10008479 C2.47976697,0.122669611 2.45826498,0.144945052 2.43614423,0.167065801 L2.43614423,0.167065801 C2.0025466,0.600818122 1.46901887,0.873382883 0.909503127,0.984914774 L0.909503127,0.984914774 C0.878100945,0.986771061 0.846698762,0.990328943 0.815451269,0.995433732 L0.815451269,0.995433732 C0.781109966,1.00069321 0.746923353,1.00827305 0.713200811,1.01755448 L0.713200811,1.01755448 C0.555880515,1.06040377 0.407377581,1.1433179 0.283779826,1.26660628 L0.283779826,1.26660628 C-0.0945932754,1.64513407 -0.0945932754,2.25863682 0.283779826,2.63700992 L0.283779826,2.63700992 C0.662307618,3.01538302 1.27565567,3.01538302 1.65418347,2.63700992 L1.65418347,2.63700992 C1.78737204,2.50382135 1.87368937,2.34108688 1.91313546,2.16999913 L1.91313546,2.16999913 C1.9173121,2.15066281 1.92133406,2.13132649 1.92427318,2.11199017 L1.92427318,2.11199017 C1.92767637,2.09249916 1.93015142,2.07300815 1.93247178,2.05351714 L1.93247178,2.05351714 C2.03936295,1.48023394 2.31424807,0.932165294 2.7577459,0.488512778 L2.7577459,0.488512778 C2.78976684,0.456646523 2.82240655,0.425708412 2.85551033,0.395543753 L2.85551033,0.395543753 L2.85535564,0.395389063 C2.94569492,0.304895087 2.94569492,0.158248439 2.85535564,0.0679091543 L2.85535564,0.0679091543 C2.81003131,0.0225848213 2.75078482,0 2.69138365,0 L2.69138365,0 C2.639717,0 2.58820505,0.0171706518 2.54581984,0.0513572648 L2.54581984,0.0513572648 Z" id="path-7"></path>
        <path d="M6.09078598,0.0490369064 C4.35036252,0.238223457 2.76865158,0.982903797 1.63693547,2.14555802 L1.63693547,2.14555802 C1.19018914,2.6045249 0.826202263,3.1173241 0.554875027,3.66972407 L0.554875027,3.66972407 C0.186711502,4.41904513 0,5.21461866 0,6.03416923 L0,6.03416923 C0,7.08931352 0.321137595,8.12960751 0.928762102,9.04290056 L0.928762102,9.04290056 C1.23644162,9.50558001 1.73949531,10.0882993 2.20248414,10.4988481 L2.20248414,10.4988481 L2.20248414,10.4997762 L1.99334251,12.1439821 C1.98498922,12.1664123 1.97601717,12.188533 1.97091238,12.2122007 L1.97091238,12.2122007 C1.96611697,12.233548 1.96472476,12.2558234 1.9624044,12.2779442 L1.9624044,12.2779442 C1.96116688,12.2946507 1.9574543,12.3110479 1.9574543,12.3283733 L1.9574543,12.3283733 C1.9574543,12.3466268 1.96116688,12.3639521 1.96286847,12.3820509 L1.96286847,12.3820509 C1.99040339,12.6526047 2.21594222,12.8646854 2.49376646,12.8646854 L2.49376646,12.8646854 C2.59060275,12.8646854 2.68016858,12.8369958 2.75844201,12.7919809 L2.75844201,12.7919809 C2.76091705,12.7905887 2.76370148,12.7893511 2.76602184,12.7879589 L2.76602184,12.7879589 C2.77762363,12.7811525 2.78922543,12.7752743 2.80020846,12.7675398 L2.80020846,12.7675398 L3.29985895,12.5167864 L4.78906494,11.7693216 C5.21709371,11.8923006 5.64187398,11.9707287 6.08970314,12.0199203 L6.08970314,12.0199203 C6.38083077,12.0519413 6.67613504,12.0683385 6.96803612,12.0683385 L6.96803612,12.0683385 C7.26535137,12.0683385 7.57380434,12.0503944 7.88426829,12.0151249 L7.88426829,12.0151249 C8.4951413,11.9456689 9.08265603,11.8047458 9.64031549,11.6047309 L9.64031549,11.6047309 C9.57998617,11.5844664 9.52073969,11.5584784 9.46334949,11.525684 L9.46334949,11.525684 C9.12210212,11.3306192 8.9456002,10.9593619 8.98056026,10.5919718 L8.98056026,10.5919718 C8.58207739,10.7185087 8.1658051,10.809312 7.73576535,10.8581942 L7.73576535,10.8581942 C7.47464769,10.8878948 7.21631447,10.9028998 6.96803612,10.9028998 L6.96803612,10.9028998 C6.72377973,10.9028998 6.47673891,10.889287 6.2329466,10.8625256 L6.2329466,10.8625256 C6.18220809,10.8571114 6.13146959,10.8490675 6.08073109,10.8422611 L6.08073109,10.8422611 C5.74598072,10.7977102 5.41525231,10.729337 5.09550693,10.6359039 L5.09550693,10.6359039 C5.0305369,10.6151754 4.96139022,10.6045017 4.89085133,10.6045017 L4.89085133,10.6045017 C4.78040227,10.6045017 4.6735111,10.6337382 4.56522771,10.6898909 L4.56522771,10.6898909 C4.55115087,10.6971614 4.53707402,10.7031943 4.52299718,10.7113929 L4.52299718,10.7113929 L3.29985895,11.4322509 L3.24695478,11.4636531 L3.24556257,11.4642718 C3.21895579,11.4797409 3.2041055,11.4856191 3.19049273,11.4856191 L3.19049273,11.4856191 C3.14547778,11.4856191 3.1091255,11.44772 3.1091255,11.4010034 L3.1091255,11.4010034 L3.15630612,11.2105793 C3.1696095,11.1601502 3.18832706,11.0894566 3.2106025,11.003294 L3.2106025,11.003294 C3.23720928,10.902281 3.26830208,10.7834787 3.29985895,10.6637482 L3.29985895,10.6637482 C3.33466433,10.5313331 3.3694697,10.3978351 3.39917029,10.2846017 L3.39917029,10.2846017 C3.41154554,10.2405148 3.42407547,10.1876107 3.42407547,10.1282095 L3.42407547,10.1282095 C3.42407547,9.96377344 3.34564736,9.80861881 3.21462446,9.71332943 L3.21462446,9.71332943 C3.14795283,9.66413783 3.08143589,9.61247119 3.01151576,9.55554506 L3.01151576,9.55554506 C2.90446989,9.4681449 2.80191005,9.37734154 2.70337217,9.28390844 L2.70337217,9.28390844 C2.42632138,9.02108919 2.18314783,8.7342929 1.97864691,8.42692276 L1.97864691,8.42692276 C1.49771397,7.70374441 1.243248,6.88311101 1.243248,6.05366024 L1.243248,6.05366024 C1.243248,5.40983815 1.39051341,4.78396015 1.6807129,4.19288754 L1.6807129,4.19288754 C1.89774375,3.75155538 2.18964483,3.34054257 2.54899099,2.9714509 L2.54899099,2.9714509 C3.4793,2.01546326 4.78767273,1.40257928 6.2329466,1.24556836 L6.2329466,1.24556836 C6.48416406,1.21834282 6.73166895,1.20426598 6.96803612,1.20426598 L6.96803612,1.20426598 C7.21615977,1.20426598 7.47433831,1.21927097 7.73576535,1.24912624 L7.73576535,1.24912624 C9.17423284,1.41247947 10.474871,2.02861196 11.398219,2.98351677 L11.398219,2.98351677 C11.7558635,3.35353658 12.0463724,3.76547753 12.2617017,4.20789252 L12.2617017,4.20789252 C12.5472604,4.79494318 12.6920508,5.41602577 12.6920508,6.05366024 L12.6920508,6.05366024 C12.6920508,6.11971311 12.6878741,6.18592067 12.6847803,6.25197354 L12.6847803,6.25197354 C13.0577393,6.02365027 13.5507381,6.06835584 13.8740413,6.39134973 L13.8740413,6.39134973 C13.8902838,6.40790162 13.9040513,6.42569103 13.9187469,6.44286168 L13.9187469,6.44286168 C13.9292659,6.30704337 13.9354535,6.17076099 13.9354535,6.03416923 L13.9354535,6.03416923 C13.9354535,5.2221985 13.7516811,4.43296728 13.3893958,3.68859632 L13.3893958,3.68859632 C13.1202342,3.13464944 12.757949,2.62076741 12.3132136,2.160563 L12.3132136,2.160563 C11.1896961,0.998836924 9.61664783,0.250289321 7.88426829,0.0532135515 L7.88426829,0.0532135515 C7.57318558,0.0179441046 7.2648873,0 6.96803612,0 L6.96803612,0 C6.68479771,0 6.38980282,0.016397199 6.09078598,0.0490369064 L6.09078598,0.0490369064 Z" id="path-9"></path>
    </defs>
    <g id="企业微信" stroke="none" stroke-width="1" fill="none" fill-rule="evenodd">
        <g id="编组-8">
            <circle id="椭圆形" fill="#FFFFFF" cx="12" cy="12" r="12"></circle>
            <g id="编组" transform="translate(4.657231, 5.514148)">
                <g id="Group-12" transform="translate(11.152912, 11.108793)">
                    <mask id="mask-2" fill="white">
                        <use xlink:href="#path-1"></use>
                    </mask>
                    <g id="Clip-11"></g>
                    <polygon id="Fill-10" fill="#FB6500" mask="url(#mask-2)" points="-0.102127542 3.02512852 3.02293108 3.02512852 3.02293108 -0.102095767 -0.102127542 -0.102095767"></polygon>
                </g>
                <g id="Group-15" transform="translate(13.890632, 9.361099)">
                    <mask id="mask-4" fill="white">
                        <use xlink:href="#path-3"></use>
                    </mask>
                    <g id="Clip-14"></g>
                    <polygon id="Fill-13" fill="#0082EF" mask="url(#mask-4)" points="-0.10213444 3.02296286 3.02508985 3.02296286 3.02508985 -0.102095767 -0.10213444 -0.102095767"></polygon>
                </g>
                <g id="Group-18" transform="translate(12.143054, 6.621220)">
                    <mask id="mask-6" fill="white">
                        <use xlink:href="#path-5"></use>
                    </mask>
                    <g id="Clip-17"></g>
                    <polygon id="Fill-16" fill="#2DBC00" mask="url(#mask-6)" points="-0.102250458 3.02528322 3.02265348 3.02528322 3.02265348 -0.101941077 -0.102250458 -0.101941077"></polygon>
                </g>
                <g id="Group-21" transform="translate(9.402943, 8.371234)">
                    <mask id="mask-8" fill="white">
                        <use xlink:href="#path-7"></use>
                    </mask>
                    <g id="Clip-20"></g>
                    <polygon id="Fill-19" fill="#FFCC00" mask="url(#mask-8)" points="-0.102173113 3.02280817 3.02505118 3.02280817 3.02505118 -0.102250458 -0.102173113 -0.102250458"></polygon>
                </g>
                <g id="Group-24">
                    <mask id="mask-10" fill="white">
                        <use xlink:href="#path-9"></use>
                    </mask>
                    <g id="Clip-23"></g>
                    <polygon id="Fill-22" fill="#0082EF" mask="url(#mask-10)" points="-0.102095767 12.9666265 14.0377039 12.9666265 14.0377039 -0.102095767 -0.102095767 -0.102095767"></polygon>
                </g>
            </g>
        </g>
    </g>
</svg>